<?xml version="1.0" encoding="UTF-8" standalone="no"?>
<!-- Created with Inkscape (http://www.inkscape.org/) -->

<svg
   width="297mm"
   height="210mm"
   viewBox="0 0 1122.5197 793.70081"
   version="1.1"
   id="svg1"
   inkscape:version="1.3.2 (091e20e, 2023-11-25)"
   sodipodi:docname="tegning.svg"
   xmlns:inkscape="http://www.inkscape.org/namespaces/inkscape"
   xmlns:sodipodi="http://sodipodi.sourceforge.net/DTD/sodipodi-0.dtd"
   xmlns="http://www.w3.org/2000/svg"
   xmlns:svg="http://www.w3.org/2000/svg">
  <sodipodi:namedview
     id="namedview1"
     pagecolor="#ffffff"
     bordercolor="#000000"
     borderopacity="0.25"
     inkscape:showpageshadow="2"
     inkscape:pageopacity="0.0"
     inkscape:pagecheckerboard="0"
     inkscape:deskcolor="#d1d1d1"
     inkscape:document-units="mm"
     inkscape:zoom="0.47378859"
     inkscape:cx="411.57597"
     inkscape:cy="398.91209"
     inkscape:window-width="1312"
     inkscape:window-height="785"
     inkscape:window-x="0"
     inkscape:window-y="25"
     inkscape:window-maximized="0"
     inkscape:current-layer="layer1" />
  <defs
     id="defs1" />
  <g
     inkscape:label="Lag 1"
     inkscape:groupmode="layer"
     id="layer1">
    <path
       style="fill:#000000"
       id="path1"
       d="m 1104.5438,115.94807 c -14.0212,0.0241 -27.9761,1.46307 -41.9388,2.57568 -9.2144,0.70704 -18.4348,1.34996 -27.6727,1.6392 -7.3096,0.1823 -14.6224,0.17424 -21.9332,0.0767 -2.7321,-0.12759 -5.192,-0.4506 -7.4976,1.19329 -1.6033,1.00579 -3.7587,1.41032 -5.63712,1.8819 -2.11221,0.56749 -4.27112,0.87819 -6.44929,1.02807 -2.42112,0.38159 -4.80893,1.08796 -7.28559,1.44076 -9.7354,0.72369 -19.46909,1.47202 -29.21925,2.02406 -39.29459,1.61519 -78.63518,1.67626 -117.95668,1.83709 -43.18704,0.18063 -86.33126,-1.57458 -129.40918,-4.49731 -28.42304,-2.22292 -56.6413,-6.35746 -84.99348,-9.27759 -32.33063,-2.90946 -64.8248,-2.99505 -97.25872,-3.22229 -33.6813,0.011 -67.36294,-0.51389 -101.01643,-1.90156 -34.69664,-2.16526 -69.3787,-4.51126 -104.03794,-7.21196 C 279.55507,100.45153 236.85195,97.666795 194.1668,94.620542 154.72415,91.981371 115.25148,89.792224 75.747137,88.333417 47.783425,87.606569 19.801844,86.621969 -8.1737563,87.074594 c -24.7633677,1.144803 -49.4086987,3.901772 -74.0940317,6.080349 -38.542882,3.373803 -77.103892,6.509133 -115.633972,10.029967 0,0 8.42146,6.00815 8.42146,6.00815 v 0 c 39.13788,-3.20025 78.31723,-5.75899 117.47377,-8.71145 24.871339,-1.919847 49.704332,-4.372467 74.6235607,-5.599004 27.6573603,-0.62745 55.3313983,0.03709 82.9834863,0.662374 39.339483,1.293187 78.647963,3.37934 117.922653,5.97545 42.75061,3.03316 85.52004,5.79239 128.25404,9.06116 34.90504,2.84892 69.83259,5.48182 104.78249,7.69636 33.48367,1.17738 66.98785,1.42687 100.49014,1.47323 32.6509,0.39248 65.35652,0.74291 97.88899,3.83161 28.15467,2.9524 56.20673,6.9504 84.46621,8.82505 42.80662,2.53997 85.66101,3.85538 128.54775,3.7717 40.00609,-0.0461 80.01565,0.10425 120.01905,-0.40781 10.08163,-0.30513 20.17711,-0.67118 30.23024,-1.48269 2.49612,-0.37627 4.93302,-1.03119 7.44792,-1.24546 2.1743,-0.29496 4.3274,-0.70168 6.4387,-1.30914 2.0423,-0.5377 4.3302,-0.90203 6.0481,-2.19332 2.0192,-1.15564 4.5222,-0.4375 6.7329,-0.67459 7.2973,-0.081 14.5953,-0.0512 21.8922,-0.1687 9.0549,-0.3177 18.0506,-1.41771 27.077,-2.15359 14.2004,-1.22759 28.4324,-2.62443 42.7036,-1.87866 z" />
    <path
       style="fill:#000000"
       id="path2"
       d="m 867.20015,4.7326318 c 0.43831,11.2232042 0.34163,22.4593912 0.29882,33.6886682 0.0696,12.377121 0.0462,24.753802 -0.0191,37.131051 -0.0471,7.522925 -0.0754,15.046899 -0.24943,22.568222 -0.0618,3.621567 -0.0215,7.243447 -0.0236,10.865297 -0.0156,1.82099 -0.0403,3.64232 -0.11049,5.46214 0.004,1.0514 0.0213,2.10453 0.0381,3.15643 -0.004,5.75701 -1.31025,2.15693 12.76559,6.69112 0.62025,0.1998 -0.77419,-1.04995 -1.12009,-1.6022 -0.39954,-0.63787 -0.74252,-1.30946 -1.11378,-1.96419 0,0 -13.45207,-6.04773 -13.45207,-6.04773 v 0 c 0.0349,0.0705 1.69627,3.5473 1.98617,3.71859 16.50995,9.7546 14.25934,12.44677 14.28041,6.00466 0.0168,-1.03898 0.0346,-2.07915 0.0381,-3.11763 -0.0689,-1.85741 -0.0951,-3.71621 -0.11048,-5.57473 -0.002,-3.62989 0.038,-7.25978 -0.0236,-10.88939 -0.17197,-7.606111 -0.20298,-15.214737 -0.24943,-22.822406 -0.0651,-12.383751 -0.0889,-24.76694 -0.0191,-37.150559 -0.0423,-11.127676 -0.14499,-22.262789 0.29881,-33.384156 z" />
    <path
       style="fill:#000000"
       id="path3"
       d="m 947.26705,41.113092 c -5.40978,0.04258 -10.81975,0.02332 -16.22961,0.01493 -4.79585,-0.293034 -6.46929,1.661227 -8.60893,5.631338 -3.27665,6.199075 -4.45816,13.12207 -5.29717,20.001001 -0.85712,6.011026 -0.79585,11.443822 2.59636,16.600715 5.92462,6.491538 13.97502,10.57082 22.27138,13.174996 6.58763,1.8684 9.04233,0.870365 13.76464,-3.695722 2.87079,-3.135625 3.59127,-7.118336 4.03061,-11.190432 0.22554,-2.94951 0.18982,-5.910363 0.16441,-8.86592 0.19499,-2.034969 -0.18931,-3.753628 -0.97527,-5.600978 -1.52203,-4.256156 -3.5642,-8.240195 -5.67367,-12.227472 -2.14498,-4.167988 -5.61717,-6.982733 -9.42945,-9.526186 -2.73222,-1.770824 -5.45559,-3.452921 -8.63363,-4.191757 0,0 2.98067,2.276142 2.98067,2.276142 v 0 c 1.28174,0.325647 3.61071,1.577345 2.84351,0.963006 -0.11361,-0.09097 -4.38592,-2.581711 -0.64228,-0.395182 3.83492,2.478154 7.3447,5.244541 9.53262,9.368009 2.09336,3.967798 4.17258,7.90577 5.6202,12.166492 0.75283,1.831365 1.30018,3.43299 1.04219,5.474212 0.0534,2.946778 0.0884,5.899058 -0.11756,8.841185 -0.39653,3.991547 -1.07446,7.901065 -3.88531,10.975399 -4.43874,4.284263 -7.38013,5.29573 -13.50467,3.39606 -6.50962,-2.089474 -11.33662,-4.086146 -16.02231,-9.471359 -3.48946,-5.038222 -3.578,-10.417588 -2.73815,-16.379421 0.81102,-6.835165 1.96472,-13.721868 5.26863,-19.858467 2.14573,-3.904946 3.71466,-5.559667 8.39965,-5.295859 5.42357,-0.0085 10.84723,-0.02743 16.27072,0.01493 z" />
    <path
       style="fill:#000000"
       id="path4"
       d="m 979.78778,46.849409 c 0.28934,6.618958 2.06809,12.939853 3.96266,19.239621 1.9404,5.435656 3.29464,6.159583 8.35604,8.788342 3.06407,0.592931 4.55542,-3.42017 5.81823,-5.544836 2.24309,-4.549465 4.12519,-9.238943 5.37979,-14.155553 0.7945,-3.035471 0.8838,-6.176702 0.9558,-9.294415 0.01,-1.57751 0.092,-0.813389 -0.2249,-2.29445 0,0 -3.3714,-1.617657 -3.3714,-1.617657 v 0 c 0.384,1.394856 0.2789,0.659679 0.2729,2.211166 -0.041,3.096682 -0.1347,6.21367 -0.8852,9.235641 -1.21481,4.893265 -3.06167,9.557632 -5.32235,14.06388 -1.21645,2.021875 -2.62599,5.881943 -5.5762,5.095957 0.76439,0.503487 1.53706,0.994627 2.29317,1.510461 0.26372,0.179916 -0.56129,-0.309114 -0.81544,-0.502324 -1.87027,-1.42187 -2.59907,-3.904118 -3.56989,-5.930764 -1.92315,-6.249412 -3.7397,-12.521887 -3.94795,-19.110765 z" />
    <path
       style="fill:#000000"
       id="path5"
       d="m 1027.4083,41.972863 c -3.3845,2.877879 -7.3974,5.394128 -9.5233,9.403601 -0.5803,4.747316 5.4917,7.782741 8.7346,10.243597 3.8285,2.775733 8.1259,5.19492 11.1117,8.938804 2.0353,3.498524 -1.0385,3.474353 -3.7305,4.191813 -4.7237,1.050298 -9.5256,1.429306 -14.3498,1.470242 0,0 2.9353,2.127255 2.9353,2.127255 v 0 c 4.8581,-0.07486 9.6977,-0.458816 14.4567,-1.50488 2.7421,-0.715949 6.0601,-1.331504 4.1162,-4.815325 -2.9403,-3.837171 -7.2766,-6.291735 -11.159,-9.061493 -2.9444,-2.229806 -9.1831,-5.51985 -8.8906,-9.746096 2.0545,-3.981832 6.0803,-6.465792 9.4528,-9.252584 z" />
    <path
       style="fill:#000000"
       id="path6"
       d="m 1045.2178,29.964241 c 0.1352,13.14244 0.1332,26.28589 0.125,39.42888 -0.016,5.847074 -0.032,11.694151 -0.064,17.541159 -0.013,2.37389 0.1069,4.621416 -0.6371,6.889966 0,0 3.2759,1.795265 3.2759,1.795265 v 0 c 0.692,-2.353618 0.5784,-4.60616 0.5649,-7.052861 -0.033,-5.868827 -0.049,-11.737721 -0.064,-17.606613 -0.01,-13.100524 -0.011,-26.201522 0.125,-39.301492 z" />
    <path
       style="fill:#000000"
       id="path7"
       d="m 1053.8737,24.313922 c 5.2539,-0.183214 10.4592,-0.02367 15.6764,0.596936 0,0 -2.9363,-2.185554 -2.9363,-2.185554 v 0 c -5.2451,-0.592302 -10.4821,-0.694841 -15.7594,-0.605012 z" />
    <path
       style="fill:#000000"
       id="path8"
       d="m 1051.5147,45.423396 c 4.3447,-0.02792 8.6896,-0.02597 13.0344,-0.01952 0,0 -2.9738,-2.160612 -2.9738,-2.160612 v 0 c -4.3627,0.0065 -8.7255,0.0082 -13.0881,-0.01952 z" />
    <path
       style="fill:#000000"
       id="path9"
       d="m 1049.4041,68.640503 c 2.2246,-0.01033 1.0907,-0.0072 3.4019,-0.009 0,0 -3.0027,-2.18156 -3.0027,-2.18156 v 0 c -2.3222,-0.0019 -1.1799,0.0013 -3.4268,-0.009 z" />
    <path
       style="fill:#000000"
       id="path10"
       d="m 1070.5501,34.44033 c 0.07,7.245552 0.057,14.491622 0.025,21.737344 0,0.819532 0,1.639071 -0.01,2.458596 -0.01,0.968673 -0.1754,3.143286 -0.037,3.201504 3.9066,1.642726 3.3597,1.903702 3.3322,-0.73909 -0.2701,-7.699462 1.0701,-15.232688 3.0272,-22.637483 1.4483,-4.171781 2.9226,-8.480903 6.6164,-11.152528 1.0249,-0.706513 5.5646,-0.09084 -0.2855,-1.561683 -0.3348,-0.08418 0.4555,0.525446 0.623,0.82732 0.2063,0.37171 0.3263,0.78509 0.4894,1.177635 1.2357,4.849212 -0.7894,9.698394 -2.9477,13.980199 -1.4553,2.656896 -3.1242,5.776629 -5.8459,7.3525 -1.0911,0.659518 -2.4886,0.0088 -2.272,1.218976 4.4702,3.218338 7.9707,7.569576 11.9097,11.389475 2.3431,2.321399 4.5804,4.745122 6.7732,7.207671 0,0 3.4267,1.441942 3.4267,1.441942 v 0 c -2.2209,-2.476245 -4.4833,-4.915665 -6.8394,-7.264634 -3.9335,-3.778941 -7.3861,-8.118543 -11.7693,-11.385523 -1.3845,0.397601 1.6374,-0.200374 1.9174,-0.575729 2.7076,-1.735601 4.425,-4.805201 5.8968,-7.563429 2.1864,-4.367295 4.2317,-9.276214 3.1345,-14.23127 -1.0257,-2.871855 -4.4135,-5.992311 -7.3622,-4.00894 -3.6899,2.804455 -5.2134,7.147491 -6.6557,11.417622 -1.9408,7.425193 -3.2883,14.969667 -3.1455,22.681915 -0.03,2.887276 -0.4832,1.851018 3.3322,4.134799 0.4407,0.263745 -0.018,-1.026919 -0.023,-1.540435 -0.02,-2.270186 -0.013,-1.496522 -0.022,-4.165511 -0.032,-7.237138 -0.045,-14.474629 0.025,-21.711594 z" />
    <path
       style="fill:#000000"
       id="path11"
       d="m 1051.763,70.748135 c 4.7559,0.239277 9.6254,-0.512893 14.3371,0.269144 1.6756,0.481186 3.3331,1.027544 4.9541,1.669727 0.6582,0.262428 1.4586,0.438625 1.7718,-0.262133 0,0 -3.3143,-1.802724 -3.3143,-1.802724 v 0 c -0.2114,0.01365 -1.0021,-0.0048 -1.4213,-0.260146 -1.624,-0.611573 -3.2727,-1.169503 -4.9622,-1.571703 -4.7514,-0.62665 -9.6047,0.0209 -14.3844,-0.235795 z" />
    <path
       style="fill:#000000"
       id="path12"
       d="m 967.1239,19.41101 c 0.0831,8.670846 0.0714,17.342183 0.0662,26.013309 -0.008,5.920117 -0.0525,11.840128 -0.0475,17.760256 0.002,4.120983 7e-4,8.241968 -0.013,12.362928 -0.002,2.021279 -0.0116,4.042514 -0.0155,6.063779 -0.005,1.744684 0.005,3.489381 0.0108,5.23406 0.009,2.158631 10e-4,4.317305 -0.0142,6.475887 1.35011,3.071227 5.21672,2.80852 7.92216,2.812819 6.87128,-0.286999 13.70396,0.387769 20.54839,0.883438 9.94285,0.703429 19.91085,0.91906 29.87475,1.059821 7.6606,0.08658 15.3217,0.100102 22.9827,0.09784 6.9518,0.100956 13.8652,0.05945 20.785,-0.629574 5.1178,-0.582212 10.246,-1.064577 15.3893,-1.347564 6.5138,-0.211935 13.0339,-0.169909 19.5505,-0.180442 7.9822,-0.0038 15.9644,0.0076 23.9465,0.0412 4.806,-0.303716 4.3355,-4.746974 4.0056,-8.376751 -0.9864,-9.811796 -1.0449,-19.690462 -1.1951,-29.54219 0.1856,-7.326694 -0.6736,-14.607623 -1.6038,-21.857801 -0.1341,-2.039492 -1.0992,-3.86625 -2.2912,-5.485229 -1.4618,-2.047857 -3.3551,-2.494269 -5.5909,-3.924091 -0.8297,-0.530583 1.7037,1.000073 2.612,1.380747 0.2132,0.08936 -0.3264,-0.327477 -0.4896,-0.491216 -1.4929,-1.258036 -3.3203,-2.026548 -4.9756,-3.037673 -0.8188,-0.50017 3.3432,1.884502 2.518,1.394933 -0.3453,-0.204808 -7.6692,-4.359985 -2.1401,-1.222194 -4,-3.581411 -8.4533,-6.234459 -13.1229,-8.862399 -6.5972,-3.95035 -14.0292,-5.95561 -21.4332,-7.7659792 -10.0758,-2.8882717 -20.4985,-3.997866 -30.9232,-4.6134653 -10.6259,-0.2963179 -21.2884,-0.8839471 -31.9113,-0.2820855 -7.5728,0.3520331 -15.0068,1.8249676 -22.48786,2.9295064 -4.52209,0.4669787 -8.8193,1.9661963 -13.31828,2.5906291 -5.34346,0.7870174 -10.52241,2.2933085 -15.74535,3.6233015 -1.71621,0.61835 -3.34084,1.474118 -4.66231,2.740975 0,0 3.20451,1.972714 3.20451,1.972714 v 0 c 1.27156,-1.22275 2.84349,-2.037437 4.50227,-2.617174 5.20446,-1.361896 10.37721,-2.853932 15.72008,-3.590356 4.48543,-0.645191 8.77518,-2.1424986 13.28804,-2.6156209 7.4566,-1.1316808 14.873,-2.5831931 22.4261,-2.9322385 10.6007,-0.5895469 21.2411,-0.045078 31.8435,0.2846253 10.4253,0.6586852 20.8424,1.7835562 30.9174,4.6897601 7.4154,1.843505 14.8344,3.913684 21.4377,7.887606 -0.2322,-0.162497 -0.9416,-0.629686 -0.6965,-0.487489 2.7219,1.579021 5.0218,3.766133 7.4833,5.708694 1.4649,0.849779 2.9173,1.721412 4.3946,2.549336 0.7683,0.430584 -3.0233,-1.808547 -2.2671,-1.357061 12.0175,7.174792 -2.5335,-1.556363 2.4837,1.564115 1.5389,1.732242 -0.1862,-0.108081 4.2722,2.9027 0.8174,0.551989 -1.694,-1.010678 -2.5394,-1.51873 -0.1728,-0.103826 1.8135,1.248329 1.7569,1.618709 1.2281,1.53514 2.2328,3.348234 2.4128,5.327393 1.0088,7.257026 1.9439,14.550698 1.7761,21.896487 0.1531,9.833079 0.1612,19.693276 1.04,29.494373 0.311,3.455845 0.9582,7.637219 -3.6813,7.857593 -7.9555,0.02391 -15.911,0.0241 -23.8664,0.01738 -6.5551,-0.0081 -13.115,-0.09289 -19.6673,0.122422 -5.1252,0.320084 -10.2354,0.820728 -15.3372,1.402762 -6.9146,0.678161 -13.8271,0.676088 -20.7716,0.595265 -7.6444,0.0035 -15.2891,0.01653 -22.9332,-0.06826 -9.9603,-0.136906 -19.9247,-0.351333 -29.86255,-1.077416 -6.88055,-0.514929 -13.75095,-1.178437 -20.65994,-0.93525 -0.58256,-0.0077 -2.26415,-0.01202 -2.97493,-0.07564 -0.26735,-0.02393 -1.00899,-0.28914 -0.79521,-0.126833 4.79789,3.642548 3.36446,1.924067 2.20097,1.281379 -0.0155,-2.163397 -0.0231,-4.326884 -0.0142,-6.490329 0.006,-1.741027 0.0155,-3.482071 0.0108,-5.223104 -0.004,-2.026543 -0.014,-4.053058 -0.0155,-6.079615 -0.0136,-4.125363 -0.0153,-8.250751 -0.013,-12.376135 0.005,-5.936275 -0.0394,-11.872432 -0.0475,-17.808693 -0.005,-8.648635 -0.0172,-17.297485 0.0662,-25.945838 z" />
    <path
       style="fill:#000000"
       id="path13"
       d="m 42.670075,9.3673753 c 0.106516,10.5001587 0.09016,21.0011607 0.05291,31.5016497 -0.02101,3.626513 -0.03107,7.253203 -0.07604,10.879536 -0.08305,0.800231 0.666318,1.270385 1.203029,1.743629 3.584792,3.376433 6.60933,2.04971 10.981629,1.787915 2.349359,-0.14067 4.701225,-0.235793 7.051837,-0.353689 18.45592,-0.715103 36.927065,-0.922033 55.39491,-1.052799 4.84063,-0.200873 9.85242,0.573146 14.52551,-1.02817 0,0 -3.09455,-2.097158 -3.09455,-2.097158 v 0 c -4.59175,1.542816 -9.51668,0.825026 -14.2671,1.069086 -18.466863,0.239591 -36.935676,0.472761 -55.395221,1.067897 -9.458944,0.387761 -4.24339,0.119836 -11.435482,0.566178 -0.687164,0.04265 -1.37347,0.127839 -2.06192,0.12083 -0.247864,-0.0025 -0.926161,-0.298812 -0.7285,-0.149237 0.866194,0.655468 1.852951,1.134146 2.779427,1.70122 -0.08687,-0.07193 -0.173749,-0.143853 -0.260624,-0.215779 -0.483129,-0.410686 -1.335008,-0.82331 -1.339701,-1.45136 -0.04472,-3.652167 -0.05511,-7.304683 -0.07604,-10.957028 -0.03705,-10.482514 -0.05408,-20.965548 0.05291,-31.447728 z" />
    <path
       style="fill:#000000"
       id="path14"
       d="m 176.63293,34.784168 c -9.13186,0.06054 -18.26401,0.05364 -27.39601,0.04304 -6.63241,-0.02757 -12.53483,1.343531 -16.95203,6.43905 -1.44477,2.467975 -3.66056,5.960488 -2.18197,8.954383 0.48311,0.978216 1.23674,1.797682 1.85512,2.696524 6.37713,6.496426 14.22122,13.168406 23.28111,15.268382 5.34717,0.259233 8.35105,-2.917837 10.06199,-7.603442 0.79698,-4.410953 -0.22897,-8.264235 -3.6505,-11.174866 0,0 -3.43889,-1.383123 -3.43889,-1.383123 v 0 c 3.49727,2.712615 4.57373,6.411539 3.85472,10.765537 -1.63804,4.553501 -4.54464,7.557826 -9.73139,7.178331 -1.09623,-0.278827 -2.33013,-0.15846 -3.31866,-0.708256 -5.12286,-2.849232 -9.74599,-6.579384 -13.70754,-10.88826 -0.62165,-0.846939 -1.37005,-1.614088 -1.86495,-2.540816 -1.53153,-2.867878 0.6058,-6.273012 2.00095,-8.658362 4.34693,-4.995675 10.19867,-6.25332 16.69285,-6.237522 9.17149,-0.01068 18.34312,-0.01708 27.51447,0.04304 z" />
    <path
       style="fill:#000000"
       id="path15"
       d="m 222.81883,41.11912 c -5.79843,0.09263 -11.38833,-0.789831 -16.61888,2.149932 -5.47763,5.307763 -8.58827,12.68389 -11.15896,19.751377 -3.04862,9.095497 -2.65752,8.295047 6.27094,12.75352 8.79738,2.209914 17.89548,3.243298 26.92885,2.334715 5.37293,-0.923858 9.96378,-3.401703 12.91257,-8.013482 1.52415,-2.943076 1.00684,-4.518731 -1.73333,-6.190947 -3.74877,-2.510757 -7.51244,-3.372662 -11.85241,-3.727247 0,0 3.00156,2.219654 3.00156,2.219654 v 0 c 1.34313,0.11726 2.67157,0.25301 3.99344,0.53066 0.93231,0.195823 5.59994,2.024933 1.38123,-0.357612 2.98465,1.62959 3.48639,2.416731 1.99793,5.653572 -2.85292,4.543126 -7.39368,6.903394 -12.64457,7.790491 -9.01382,0.864095 -18.12067,-0.152344 -26.86169,-2.507164 1.26531,2.070399 -1.73654,-0.741973 -1.89833,-1.788764 -0.16237,-1.05047 0.53292,-3.174605 0.7767,-4.007317 0.28716,-0.980899 0.60353,-1.953011 0.9053,-2.929516 2.50637,-7.001244 5.56704,-14.317849 11.06462,-19.500756 5.11355,-2.767651 10.9065,-1.941442 16.546,-1.973514 z" />
    <path
       style="fill:#000000"
       id="path16"
       d="m 297.18808,36.8918 c -6.81209,0.07337 -13.61145,-0.33753 -20.33625,0.908129 -5.23396,0.867554 -7.21355,4.516828 -8.13011,9.308491 -0.81325,3.576574 0.13558,6.90838 0.92109,10.363485 0.86875,2.401803 1.63924,4.849782 3.78531,6.383902 3.48142,2.63084 6.367,2.683096 10.40627,2.726516 4.0838,0.375411 6.86435,-2.179653 9.85708,-4.506785 2.71244,-2.231401 5.02857,-4.821379 7.29385,-7.490507 1.6096,-2.173472 2.14804,-4.792229 2.41563,-7.424929 0.43874,-3.599165 -2.03849,-6.205149 -4.44579,-8.537942 -2.98391,-2.092145 -6.23494,-3.694911 -9.71826,-4.733282 0,0 2.91478,2.253163 2.91478,2.253163 v 0 c 6.34636,2.000217 -2.55088,-1.852094 3.384,1.07414 2.35913,2.193122 4.94145,4.7402 4.55528,8.216251 -0.24415,2.561681 -0.72612,5.118046 -2.29791,7.233031 -2.23582,2.65865 -4.53717,5.226565 -7.23062,7.438625 -2.96799,2.308149 -5.7048,4.696711 -9.73971,4.283887 -1.37839,-0.02256 -2.76542,-0.02707 -4.13784,-0.176705 -1.45786,-0.158947 -4.64938,-1.550277 0.2299,1.002968 -2.28989,-1.328351 -2.98859,-3.779968 -3.92103,-6.127265 -0.75976,-3.417403 -1.81509,-6.692649 -1.00776,-10.238153 0.86534,-4.68318 2.75053,-8.122041 7.85515,-8.958603 6.73717,-1.216947 13.55464,-0.804114 20.37451,-0.798759 z" />
    <path
       style="fill:#000000"
       id="path17"
       d="m 167.19362,104.09165 c 0.41564,37.41983 0.46013,74.84284 0.53815,112.26455 0.10653,62.53713 0.0292,125.07434 -0.0883,187.61139 -0.0777,37.19362 -0.13908,74.38728 -0.22579,111.58089 -0.40361,16.96442 0.78024,33.89774 1.4076,50.83895 0.46031,15.08394 0.53582,30.17607 0.54508,45.26593 0.19192,11.54139 -0.96429,23.0446 -2.2737,34.49496 -2.90777,25.79193 -7.92812,51.25511 -12.9868,76.68971 -3.92307,21.1003 -9.00404,41.96585 -12.923,63.06359 -1.74946,9.81464 -3.73815,19.57546 -5.82966,29.32151 0,0 3.18659,1.70767 3.18659,1.70767 v 0 c 2.01186,-9.78361 3.95864,-19.5749 5.67069,-29.41663 3.83362,-21.12816 8.85619,-42.02211 12.77601,-63.1366 5.03322,-25.43481 9.9889,-50.90052 13.10067,-76.65842 1.41882,-11.42169 2.7922,-22.91792 2.45563,-34.44912 -0.12613,-15.10438 -0.2526,-30.20981 -0.6096,-45.31082 -0.57128,-16.98329 -1.96837,-33.94307 -1.65147,-50.94939 -0.0867,-37.27031 -0.14808,-74.54066 -0.2258,-111.81099 -0.11736,-62.56705 -0.19491,-125.13426 -0.0883,-187.70139 0.0778,-37.2389 0.12091,-74.47914 0.53815,-111.71614 z" />
    <path
       style="fill:#000000"
       id="path18"
       d="m 760.28973,140.22743 c 1.28047,71.19809 -1.37002,142.38795 -3.58763,213.53948 -3.53305,106.85145 -7.40349,213.69168 -10.74349,320.54948 -0.95209,31.12279 -1.78792,62.249 -2.42758,93.37979 0,0 3.04036,1.55398 3.04036,1.55398 v 0 c 0.14899,-31.30657 0.70405,-62.60949 1.38566,-93.90861 2.52045,-107.00776 6.07902,-213.98779 9.95249,-320.95438 2.47883,-70.80676 5.20548,-141.61831 5.68718,-212.47475 z" />
    <path
       style="fill:#000000"
       id="path19"
       d="m 198.88529,141.75621 c 0.42395,37.53272 0.38108,75.06894 0.33692,112.60344 0.0849,18.27891 0.48326,36.55379 1.02695,54.82404 0,0 3.06715,1.54857 3.06715,1.54857 v 0 c -0.80786,-18.34306 -1.35989,-36.69763 -1.51578,-55.05889 -0.044,-37.42004 -0.0888,-74.84186 0.33692,-112.2601 z" />
    <path
       style="fill:#000000"
       id="path20"
       d="m 209.49121,144.59663 c 57.88686,-0.33242 115.78038,-0.97554 173.66602,-0.0986 18.05066,0.27346 36.0966,0.79963 54.14491,1.19945 67.97001,1.82291 135.99035,5.21164 203.4851,13.70556 16.42873,2.44777 32.80618,5.05369 49.39974,6.00255 6.10707,0.31482 12.22232,0.4297 18.33678,0.39371 2.01871,-0.15631 3.93526,0.55274 5.65727,1.55076 -0.95937,-0.4948 -1.87159,-1.09435 -2.8781,-1.48441 -0.18693,-0.0724 0.43743,0.28124 0.3725,1.62194 -0.0556,1.14912 -0.22062,2.29101 -0.3789,3.43053 -0.86422,6.22166 -1.85989,11.66434 -2.93511,17.95912 -3.84271,23.81111 -7.59287,47.63944 -11.25683,71.47957 -0.59646,5.28104 -1.83306,10.49763 -2.32158,15.79276 -0.081,0.74237 -0.0165,1.48417 0.0118,2.22634 0.0707,2.68604 0.073,5.3737 0.09,8.06047 0.0287,6.47816 0.0177,12.95643 -0.0211,19.43452 -0.0824,0.28171 10e-4,0.68886 -0.24724,0.84512 -0.35143,0.22101 -0.82739,0.11091 -1.24208,0.0915 -1.40216,-0.0656 -2.79986,-0.20889 -4.19683,-0.34606 -3.30863,-0.32487 -6.60834,-0.73937 -9.91927,-1.03999 -17.01781,-1.54516 -26.18896,-2.06879 -44.24198,-3.32811 -55.68287,-3.3507 -111.41958,-5.70012 -167.03074,-10.19559 -39.2407,-3.17211 -50.35675,-4.59016 -88.78114,-8.67649 -44.59392,-5.06926 -89.08339,-11.13073 -133.37984,-18.35867 -5.47915,-0.64757 -11.27258,-2.99104 -16.63094,-0.72619 -2.95638,1.22218 -5.79614,2.71346 -8.59505,4.26042 0,0 3.10211,2.02253 3.10211,2.02253 v 0 c 2.78905,-1.54573 5.63149,-3.01372 8.58857,-4.21131 5.27039,-2.04847 10.90004,0.126 16.26783,0.70625 43.96631,6.76325 88.07647,12.62121 132.28869,17.52604 38.4543,4.021 49.34548,5.37782 88.63392,8.5596 55.84778,4.52285 111.81857,7.01787 167.72067,10.70473 19.75809,1.51188 26.50318,1.88264 44.76549,3.72982 3.37684,0.34156 6.73877,0.82007 10.1146,1.1715 0.14932,0.0155 4.61509,0.87044 5.82534,-0.099 0.25727,-0.20607 0.17194,-0.63644 0.25791,-0.95467 -0.0379,-6.48597 -0.0491,-12.9721 -0.0248,-19.45815 0.0139,-2.6727 0.063,-5.3473 0.0179,-8.01964 -0.0219,-0.73193 -0.0904,-1.46152 -0.0454,-2.19436 0.38866,-5.32997 1.49565,-10.59557 2.05731,-15.90499 3.40099,-23.88877 7.04845,-47.75002 11.14265,-71.52904 0.65577,-3.56084 1.32607,-7.11903 1.96732,-10.68251 0.42848,-2.38113 0.85037,-4.7636 1.24182,-7.1511 0.79971,-4.87761 1.185,-4.92603 -3.2679,-7.62422 -1.77661,-0.92907 -3.70484,-1.54286 -5.73501,-1.36976 -6.06494,0.0537 -12.13135,-0.012 -18.19013,-0.31544 -16.44805,-0.92873 -32.6968,-3.4615 -49.00273,-5.73544 -67.13571,-7.98383 -134.74827,-11.02876 -202.30125,-12.80355 -18.05175,-0.40149 -36.10147,-0.9075 -54.15524,-1.20446 -58.43939,-0.96125 -116.88767,-0.49847 -175.32995,-1.10847 z" />
    <path
       style="fill:#000000"
       id="path21"
       d="m 239.95231,169.86551 c -3.95259,-0.18617 -7.45531,-0.18359 -9.92281,3.23074 -1.25128,4.15183 1.23551,8.40792 3.88792,11.46613 8.32015,6.30026 18.81437,7.36746 28.82207,8.79123 4.88797,0.23896 16.30393,3.07955 20.5722,-0.30413 0.77156,-0.61165 1.16198,-1.5898 1.74298,-2.38469 3.08453,-12.09626 -2.92769,-14.86264 -12.48726,-20.25311 -10.97813,-4.47108 -22.36442,-7.86983 -33.75011,-11.1339 -1.07308,-0.27342 -2.14615,-0.54684 -3.21922,-0.82026 0,0 2.89785,2.21769 2.89785,2.21769 v 0 c 1.06214,0.26939 2.12429,0.53878 3.18644,0.80817 11.37505,3.21929 22.75244,6.60133 33.66787,11.17123 6.34099,2.91349 8.51069,9.73638 6.54875,16.14162 -0.54541,0.73799 -0.90914,1.65413 -1.63625,2.21397 -4.22887,3.25599 -15.5476,0.43949 -20.35866,0.22099 -4.76374,-0.68907 -6.91323,-0.92463 -11.61145,-1.90104 -3.0467,-0.63318 -5.97425,-1.77599 -9.02673,-2.38068 -0.16109,-0.0319 0.35902,0.51726 0.21161,0.44489 -0.77106,-0.37855 -1.44128,-0.93492 -2.16191,-1.40238 -2.63088,-2.84596 -5.14146,-7.00265 -4.08462,-11.00234 2.40232,-3.28657 5.96161,-3.09323 9.74061,-2.9305 z" />
    <path
       style="fill:#000000"
       id="path22"
       d="m 302.23541,174.1728 c 5.91716,-0.16581 11.85593,0.26267 17.75346,-0.28757 9.04439,-1.49099 17.18331,-1.38271 26.26139,-0.17345 14.06308,1.78497 28.12356,3.49873 42.08074,5.99836 3.48247,0.7559 7.05114,1.0919 10.41674,2.31755 0.5696,0.20744 2.18273,1.04457 1.66836,0.72379 -2.90784,-1.81345 -2.31425,-1.30424 -1.42469,0.009 1.13646,2.32848 -0.0275,5.0658 1.36472,7.238 1.74511,0.82224 5.51913,4.31969 7.83165,2.90167 0.82031,-1.93082 0.70714,-4.11207 0.78949,-6.17118 0,0 -3.29361,-1.69455 -3.29361,-1.69455 v 0 c -0.0749,1.9291 -0.01,3.94862 -0.63965,5.79633 -1.10608,0.37591 -3.29969,-1.02027 -2.55614,-0.35531 1.01807,0.91046 3.63256,2.14418 1.30826,1.00543 -1.71505,-1.9425 -0.30581,-4.91404 -1.39076,-7.21198 -3.03999,-5.41715 -11.71185,-5.4644 -16.90865,-6.69538 -13.96305,-2.44705 -28.0266,-4.13131 -42.07844,-5.97736 -8.93813,-1.17948 -17.49415,-1.29945 -26.41592,0.15914 -5.91458,0.50389 -11.86368,0.15167 -17.79453,0.21737 z" />
    <path
       style="fill:#000000"
       id="path23"
       d="m 249.28051,222.12296 c 4.66745,-2.28548 9.97544,-4.53114 15.24842,-4.38818 -0.50274,-0.21699 -1.44606,-1.19499 -1.50823,-0.65096 -0.10488,0.91773 0.97803,1.58098 1.30314,2.44557 0.41444,1.10212 0.66754,2.26148 0.90085,3.4156 0.77045,3.81106 0.94408,7.72246 1.16519,11.59216 0.0531,4.58519 -0.0131,8.35316 6.82964,6.97795 1.12334,-0.22576 7.13221,-6.44773 7.19371,-6.50852 4.33947,-4.31938 8.6157,-8.69455 13.12263,-12.84127 2.67574,-2.46188 4.77001,-4.6792 8.32184,-5.53266 0.46877,0.17811 1.89465,0.64833 1.40631,0.53433 -0.75187,-0.17552 -1.47969,-0.99396 -2.20153,-0.71997 -0.45547,0.17289 0.45486,0.86258 0.6512,1.30844 0.26676,0.60578 0.28847,1.36379 1.04133,1.64551 1.56977,0.58742 3.21274,0.95673 4.81911,1.4351 7.04703,-1.85512 14.22162,-3.47122 21.5335,-2.92535 8.94161,2.23413 17.66268,-0.77754 26.28917,-3.11649 8.53334,-2.52404 17.30675,-4.19336 26.1862,-4.76782 5.12,-0.2376 10.46681,-0.42303 15.05853,2.13683 -0.61054,-0.20975 -1.49227,-1.17842 -1.83163,-0.62925 -0.0775,0.12546 1.69956,1.56503 3.29365,2.36073 4.0378,2.01551 7.7765,3.18398 11.94078,4.68928 -1.56964,0.0304 -0.26944,-0.11622 1.62532,2.16606 1.81573,2.18709 2.65076,5.40183 5.15745,6.99695 2.09254,1.33159 4.42579,2.24048 6.63869,3.36071 10.70541,2.09079 21.54402,-0.20565 32.29936,1.16265 -2.30799,-1.91365 5.73715,2.55594 4.31745,1.88485 -0.74524,-0.35228 -2.96156,-1.38957 -2.15728,-1.20895 5.26872,1.18321 3.47344,3.4863 5.49339,-1.03834 0.0368,-0.0926 1.00883,-2.61046 1.21066,-2.87718 0.0739,-0.0977 0.48615,0.0398 0.36733,0.0101 -1.04431,-0.26129 -2.20513,-1.22015 -3.15123,-0.70662 -0.72198,0.39188 -0.0445,1.64247 -0.0846,2.46296 -0.05,1.02334 -0.12376,2.04538 -0.18564,3.06807 0.01,1.00285 -0.25038,2.0456 0.0299,3.00854 0.93156,3.20051 6.91415,2.91084 8.48283,2.6442 2.38496,-0.40538 4.36333,-2.09567 6.48666,-3.25491 6.46778,-3.53112 9.478,-5.62754 15.72902,-9.64346 5.99571,-3.45264 11.63355,-8.53798 18.49878,-10.35303 2.95082,-0.78015 8.32504,1.52464 3.75197,0.34397 2.00568,1.89515 2.69865,2.81207 6.32754,3.51327 2.05998,0.39804 11.40615,-5.03544 13.4577,-6.17959 0.7079,-3.49054 3.88601,0.23324 5.08987,-1.00865 0.43882,-0.45269 -1.41663,-1.07831 -1.80078,-0.5784 -0.40608,0.52846 0.60526,1.18927 0.85728,1.80623 1.8433,4.51254 -0.42112,-0.3069 1.45485,3.55633 4.55664,3.82683 5.39985,2.21614 9.92884,1.16272 0.45293,-0.10535 1.64829,0.31423 1.39306,-0.0745 -0.44339,-0.6753 -1.44105,-0.73066 -2.16158,-1.09598 1.51776,1.57733 -0.0176,7.48727 1.69096,8.08778 1.45323,0.51079 2.98515,0.76163 4.47772,1.14244 1.63626,-1.13878 2.72123,-2.90761 4.34418,-4.05711 0.23288,-0.16495 1.04021,-0.17346 0.79459,-0.31877 -3.48786,-2.06343 -3.01168,-1.65083 -3.11938,0.53104 -0.084,0.67499 -0.15856,1.35121 -0.25184,2.02497 -0.20262,1.46343 -0.80328,4.02544 -0.63504,4.08704 3.82423,1.40021 3.19323,1.73979 4.44939,-0.0555 0.18231,-0.14078 0.72887,-0.28104 0.54695,-0.42234 -0.83728,-0.65034 -1.81651,-1.22915 -2.86604,-1.37897 -0.37037,-0.0529 0.34072,0.67183 0.43976,1.0326 0.14958,0.54489 0.22366,1.10845 0.30162,1.6681 0.42102,3.02235 -0.15007,0.99371 0.82329,3.72224 3.11255,6.54763 9.55672,2.49035 12.50908,5.11502 0.24687,0.21947 -0.60614,0.26273 -0.90921,0.3941 5.228,8.0775 6.62644,17.84884 11.7312,25.97232 2.63812,3.25326 6.40402,5.331 10.51452,4.60729 4.41873,-0.68184 8.03881,-3.79114 11.52528,-6.38066 7.70165,-6.77416 13.59473,-15.55581 20.05424,-23.50465 6.61659,-7.72432 13.432,-15.29025 20.58672,-22.5218 1.0645,-1.39004 0.63779,-0.66293 1.31184,-2.16242 0,0 -3.25598,-1.83319 -3.25598,-1.83319 v 0 c -0.61214,1.41632 -0.21854,0.7209 -1.22075,2.06313 -6.9922,7.37648 -13.73316,14.99089 -20.36405,22.692 -6.47984,7.91688 -12.49751,16.55462 -20.21404,23.30323 -3.46673,2.58311 -7.06975,5.5991 -11.49091,6.19046 -0.91821,0.13751 -1.78925,0.2625 -2.71607,0.0591 -0.45235,-0.0993 -1.50957,-0.8371 -1.32698,-0.41151 0.24537,0.57192 1.64178,1.61642 1.57831,0.99733 -0.0787,-0.76767 -1.0955,-1.08716 -1.64325,-1.63075 -5.2849,-8.04663 -6.67116,-17.83454 -11.69269,-26.04212 -3.30433,-2.48803 -4.19501,-4.12184 -7.66562,-4.74766 -0.73599,-0.13271 -1.49724,-0.0361 -2.24036,-0.12017 -0.73736,-0.0834 -1.72172,-0.95404 -2.19329,-0.3811 -0.41041,0.49863 0.91385,1.28894 1.54774,1.16541 0.53894,-0.10503 -0.70711,-0.84022 -1.06066,-1.26033 -0.2215,-0.54516 -0.53085,-1.06242 -0.66449,-1.63548 -0.4351,-1.86571 -0.49992,-9.90342 -5.16907,-6.44646 -1.2891,1.86116 -1.12162,0.9937 2.12485,3.65812 0.14035,0.11519 -0.0592,-0.36318 -0.0374,-0.54343 0.22489,-1.85722 0.75366,-3.68639 0.87383,-5.56164 0.92539,-9.70075 -6.63404,-1.65882 -8.43402,0.0788 0.70688,0.76266 1.53044,1.43182 2.12064,2.28797 0.16983,0.24635 -0.67364,-0.12049 -0.81004,-0.38681 -0.82581,-1.61232 -0.0729,-4.37802 -0.38659,-6.14856 -0.0967,-0.54555 -0.33177,-1.05725 -0.49765,-1.58587 -6.70178,-3.71303 -3.51835,-1.98499 -9.38122,-1.13689 -0.58641,0.0848 -1.83115,-0.54151 -1.7769,0.0485 0.0699,0.7607 1.26619,0.85498 1.89929,1.28247 -0.5647,-1.08475 -1.62277,-4.91606 -2.25853,-5.49912 -3.79358,-3.47909 -5.6213,-3.77886 -9.76099,-1.78343 -3.46924,1.93962 -6.94631,4.00281 -10.73476,5.27702 -0.85445,0.28739 -2.13833,-0.12692 -2.63045,0.6284 -0.34684,0.53233 1.1907,0.74248 1.33398,1.36147 0.13302,0.57463 -0.86491,-0.80219 -1.29736,-1.20329 -1.0236,-0.73233 -4.57625,-3.87441 -6.77584,-4.07261 -7.05783,-0.63595 -16.06489,7.75625 -21.75459,10.82421 -6.07155,3.87809 -9.45057,6.21931 -15.78312,9.56077 -2.13591,1.12704 -4.63689,1.62695 -6.54472,3.10767 -0.70447,0.54677 0.0405,2.17744 -0.76309,2.56415 -1.41833,0.68256 -2.5697,-4.86446 -1.52993,-4.46736 0.023,-0.33446 0.38461,-5.49316 0.35932,-5.53784 -3.23442,-5.71589 -3.81261,-2.8033 -5.00005,0.0732 -0.23095,0.50392 -0.4355,1.02079 -0.69285,1.51175 -0.15327,0.2924 -0.72727,0.56363 -0.53609,0.83278 0.59513,0.83781 3.42615,2.19883 2.45363,1.86671 -2.99997,-1.0245 -5.21355,-3.89635 -8.54976,-4.18888 -10.7398,-1.21855 -21.58622,1.08298 -32.23709,-1.24766 -1.18503,0.83511 -0.63844,0.65351 -2.57834,-1.84055 -0.5779,-0.74297 -0.90807,-1.6499 -1.40186,-2.45124 -2.43867,-3.95756 -5.07332,-6.10999 -9.47561,-8.22809 -0.63263,-0.22423 -5.52314,-2.01523 -6.2045,-2.02382 -0.36146,-0.005 0.95125,0.9502 0.59217,0.90853 -2.00615,-0.23278 -6.53056,-6.30713 -7.79685,-5.37851 -4.69069,-2.37547 -10.01357,-2.21423 -15.15441,-1.95228 -8.85709,0.62775 -17.58472,2.42098 -26.10249,4.91224 -8.66435,2.31708 -17.36461,5.11803 -26.33106,2.94186 -7.35226,-0.42719 -14.53631,1.21827 -21.64647,2.96584 0.57256,0.68964 1.26867,1.29315 1.7177,2.0689 0.14463,0.24988 -0.5843,-0.18601 -0.76031,-0.41487 -0.22981,-0.29882 -0.23819,-0.71581 -0.37837,-1.06576 -1.0397,-2.5956 -3.5089,-4.38709 -6.29051,-4.75986 -3.5066,1.05624 -5.62268,3.26853 -8.29732,5.76106 -4.4813,4.1762 -8.75638,8.55561 -13.12737,12.84556 -1.35627,1.30584 -2.65115,2.67861 -4.06881,3.91753 -0.9981,0.87225 -2.66696,1.1777 -3.1665,2.40549 -0.35921,0.8829 1.15326,1.67995 1.1168,2.63243 -0.018,0.46959 -0.97739,-0.33843 -1.18855,-0.75826 -0.35411,-0.70406 -0.42049,-4.73964 -0.43821,-5.17391 -0.20522,-3.40854 -0.68147,-15.51226 -3.17186,-17.74174 -1.41537,-1.26709 -3.28398,-1.91064 -4.92597,-2.86597 -5.35028,0.0651 -10.65696,2.23526 -15.41716,4.54107 z" />
    <path
       style="fill:#000000"
       id="path24"
       d="m 196.73809,306.45888 c 0.054,5.70336 0.0349,11.40703 0.0235,17.11053 10e-4,3.31683 -0.0232,6.63362 -0.0261,9.95043 -0.11742,3.21289 2.29835,3.73363 4.93002,5.17635 6.78811,0.22397 13.58222,0.1063 20.3761,0.33516 19.8711,0.94915 39.58597,3.46594 59.25096,6.35866 23.86852,3.5698 48.0011,4.68702 72.06665,6.10185 24.65174,1.34171 49.29813,2.76794 73.95636,3.99743 33.92391,1.5648 67.80717,3.55746 101.61171,6.82976 23.83288,2.35235 47.49124,6.14437 70.99847,10.67027 10.0025,1.71591 19.90094,3.96364 29.87588,5.82861 6.4243,1.10597 12.91685,1.73997 19.42169,2.1058 3.15998,0.3506 3.39817,0.16567 5.0873,-2.15143 4.56006,-5.16558 9.45808,-10.02481 14.32142,-14.90287 4.84386,-4.8208 6.93573,-11.40957 9.14614,-17.70556 2.44515,-6.96462 3.71601,-11.14463 5.98124,-18.25732 3.50758,-11.52508 7.72441,-22.81208 11.71231,-34.17464 0,0 -3.15344,-1.74063 -3.15344,-1.74063 v 0 c -3.84938,11.42685 -7.98974,22.75648 -11.51896,34.28961 -2.39736,7.4483 -3.44614,10.94035 -6.06321,18.19334 -2.24634,6.22558 -4.42513,12.71051 -9.21265,17.49214 -4.85285,4.92369 -9.7593,9.80164 -14.42795,14.90151 -1.62934,2.18694 -1.85771,2.14206 -4.85277,1.86543 -6.47301,-0.34196 -12.93354,-0.97306 -19.32223,-2.09137 -9.92785,-1.86839 -19.79301,-4.05993 -29.75589,-5.73916 -23.42847,-4.40899 -46.99723,-8.12198 -70.73397,-10.43441 -33.84108,-3.22562 -67.75812,-5.22069 -101.70914,-6.88397 -24.67334,-1.27784 -49.33672,-2.72438 -74.00766,-4.0383 -24.0751,-1.4121 -48.21615,-2.55265 -72.08971,-6.15509 -19.71737,-2.90995 -39.48679,-5.40946 -59.40717,-6.4272 -6.83287,-0.25376 -13.71022,-0.0725 -20.5171,-0.58115 5.17552,3.21179 1.14354,1.28313 1.36601,-1.16589 -0.003,-3.32567 -0.0275,-6.65132 -0.0261,-9.97702 -0.0113,-5.69551 -0.0306,-11.3912 0.0235,-17.08657 z" />
    <path
       style="fill:#000000"
       id="path25"
       d="m 237.84167,264.84459 c -4.56083,0.0283 -9.12181,0.0165 -13.68268,0.006 -3.5602,-0.003 -7.12039,0.002 -10.68059,0.002 -1.52153,-0.34851 -3.33205,0.38653 -4.84149,-0.0138 -0.18385,-0.0488 -0.64032,-0.40874 -0.47095,-0.32219 0.96652,0.49393 1.91054,1.0307 2.86581,1.54605 0,0 -3.4755,-1.44386 -3.4755,-1.44386 v 0 c 4.15057,2.62369 4.33213,2.62791 8.92009,2.41198 3.56219,-2.9e-4 7.12437,0.006 10.68656,0.002 4.56599,-0.011 9.13208,-0.0226 13.69802,0.006 z" />
    <path
       style="fill:#000000"
       id="path26"
       d="m 229.84758,312.2555 c 0.9372,-3.9253 1.99756,-7.82278 3.11414,-11.70262 1.09378,-3.56876 1.99798,-7.18574 2.71917,-10.84697 0.15839,-2.03907 2.41916,-0.70052 3.48722,-0.0357 -0.70791,-0.34157 -1.34113,-1.09763 -2.12374,-1.02469 -0.50451,0.047 0.71606,0.72172 1.01935,1.12761 1.48118,1.98217 1.99007,4.35293 2.45027,6.72634 0.37092,4.85311 -2.34921,8.81568 -4.82843,12.72018 -0.38769,0.46074 -0.73101,0.96282 -1.16308,1.38223 -0.31302,0.30386 -1.35629,1.0524 -1.90106,1.12426 -0.13732,0.0181 -0.48958,-0.25793 -0.36211,-0.20378 3.6262,1.54032 2.65214,2.47328 3.82354,0.47361 2.87892,-4.13742 7.3612,-5.64558 12.03931,-6.99533 6.76489,-1.95184 9.40066,-2.3258 16.46447,-3.75443 11.9848,-1.727 24.06496,-4.43823 36.23868,-3.90253 0.59243,0.17087 2.27709,0.87369 1.7773,0.5126 -0.72171,-0.52142 -1.58641,-1.11354 -2.47118,-1.01392 -0.43165,0.0486 0.07,0.8921 -0.077,1.30085 -0.22825,0.63476 -0.61239,1.21021 -1.01937,1.74816 -1.20074,1.58717 -2.29616,2.2876 -3.86206,3.54325 -9.20647,5.08679 -19.57268,7.78465 -29.5219,11.06483 -8.53121,2.71209 -17.19667,4.99978 -25.94405,6.8989 -1.08864,0.3624 -1.8265,0.31021 -2.81696,-0.17664 -0.20344,-0.10001 -0.78679,-0.45079 -0.58914,-0.33977 2.81701,1.58224 3.60779,2.17771 2.4047,1.30236 -8.95608,-5.00999 -1.82229,-0.9909 -1.00335,-0.62302 0.19493,0.0876 -0.32934,-0.27693 -0.46198,-0.44447 -0.45576,-0.57571 -0.67664,-1.28561 -0.90866,-1.9682 -0.18711,-0.65645 -0.10608,-0.34686 -0.24781,-0.92751 0,0 -3.39467,-1.63087 -3.39467,-1.63087 v 0 c 0.13972,0.60129 0.06,0.28084 0.24371,0.96023 0.22245,0.70244 0.43002,1.50173 0.83804,2.12487 1.26281,1.92861 7.96436,4.63539 1.43786,1.11156 2.24488,1.8545 4.6778,3.47564 7.54055,2.72075 8.68341,-2.01523 17.29824,-4.33931 25.79279,-7.04504 10.01547,-3.29022 20.49079,-5.91578 29.7354,-11.07847 4.56028,-3.65818 9.37902,-8.22828 -0.40738,-10.20385 -12.13285,-0.34243 -24.14413,2.38283 -36.08916,4.11146 -6.91686,1.38569 -9.93042,1.83988 -16.58276,3.72269 -4.8193,1.36401 -9.34611,2.8978 -12.34741,7.10905 -4.58926,7.54622 7.22478,2.48334 6.03017,0.95762 2.49713,-3.9911 5.25735,-8.02938 4.96363,-12.96185 -0.95445,-5.23516 -2.47143,-8.33868 -7.58565,-10.79988 -1.3534,-0.68859 -3.6829,-1.67366 -3.87932,0.62597 -0.66544,3.66632 -1.55293,7.28246 -2.64779,10.84529 -1.13286,3.87506 -2.19573,7.77084 -3.17496,11.68536 z" />
    <path
       style="fill:#000000"
       id="path27"
       d="m 547.82331,336.10069 c 2.47752,4.00646 5.44904,7.66637 7.86878,11.70689 0,0 3.38986,1.50308 3.38986,1.50308 v 0 c -2.41249,-4.04232 -5.3842,-7.69286 -7.85451,-11.70121 z" />
    <path
       style="fill:#000000"
       id="path28"
       d="m 548.32452,331.21103 c -0.0253,-2.75518 -0.002,-5.51041 -10e-4,-8.26561 -0.20163,-1.93918 0.38785,-2.6988 2.02823,-3.63637 4.18387,-2.19181 8.15571,-4.71258 12.43345,-6.73565 4.72445,-1.82652 9.68094,-3.13626 14.63729,-4.18591 9.85622,-1.46583 19.73459,-2.75698 29.64688,-3.78452 7.89555,-0.20176 15.93234,-2.12614 23.84087,-1.37362 -1.00499,-1.16928 3.25944,1.27522 2.44462,0.9563 -0.8722,-0.34137 -1.60681,-1.04153 -2.5227,-1.23753 -0.35073,-0.0751 0.47433,0.54123 0.67091,0.84124 0.61908,0.94479 0.6871,1.34643 1.07856,2.4309 1.04274,3.71731 2.02587,7.41714 2.58999,11.2421 0.44675,3.57878 0.5477,7.18719 0.5959,10.7895 0.22011,2.59326 -0.82752,3.51105 -3.21198,3.94037 -3.18946,0.47052 -6.28497,0.2544 -9.42201,-0.37551 -5.41445,-1.16895 -10.9791,-1.04517 -16.46162,-1.64119 -4.83058,-0.32433 -9.42761,-1.45278 -14.04703,-2.78053 -3.61053,-0.97704 -7.35658,-1.14094 -11.07281,-1.28917 -3.12996,-0.09 -6.26155,-0.0726 -9.39239,-0.0687 -2.11644,0.005 -4.2329,0.0104 -6.34934,0.008 -0.78891,0.0443 -1.47327,-0.31258 -1.80342,0.45601 -0.12817,1.05741 -0.0676,2.13191 -0.0523,3.19522 0.13301,1.87309 0.0353,3.58736 -0.5414,5.37088 -0.57643,2.13462 -1.65659,4.05315 -2.63275,6.02562 -0.31794,1.05715 -0.8346,1.51881 -1.53336,2.16979 -0.88544,1.00827 -2.20187,1.37088 -3.47347,1.60123 -1.10406,0.1926 -2.22737,0.19135 -3.34441,0.19266 -0.52022,-0.008 -1.04062,0.004 -1.56065,-0.0136 0,0 3.05095,2.22261 3.05095,2.22261 v 0 c 0.5192,5.2e-4 1.03845,0.005 1.55765,0.002 1.12917,-0.0159 2.26446,-0.0299 3.37563,-0.25592 1.32449,-0.27694 2.65185,-0.73085 3.58885,-1.76168 0.81175,-0.65614 1.229,-1.27407 1.59461,-2.30668 0.96793,-1.99556 2.07312,-3.92215 2.65215,-6.07417 0.60548,-1.81962 0.76385,-3.55171 0.61307,-5.47162 -0.006,-1.03076 -0.0485,-2.06439 0.0195,-3.09364 0.1806,-0.033 1.13266,-0.0862 1.52592,-0.0532 2.10934,-0.009 4.2187,-0.0163 6.32805,-0.0241 3.12372,-0.0112 6.24841,-0.0215 9.37108,0.0727 3.70219,0.14831 7.43029,0.35183 11.01769,1.35968 4.60701,1.336 9.2272,2.33286 14.03455,2.69016 5.49699,0.56761 11.07176,0.50643 16.49243,1.70514 3.16883,0.61209 6.31889,0.76821 9.52703,0.27249 2.47947,-0.53363 3.70618,-1.6921 3.47023,-4.38879 -0.0488,-3.62056 -0.17597,-7.24548 -0.59742,-10.84442 -0.5474,-3.84262 -1.52542,-7.55435 -2.53607,-11.29335 -1.19423,-3.64476 -4.11845,-6.20455 -8.0201,-6.77023 -7.89831,-0.53572 -15.85587,1.25385 -23.73299,1.53412 -9.95912,1.0334 -19.89446,2.27048 -29.80095,3.72339 -4.97177,1.07187 -9.95096,2.37653 -14.67546,4.26333 -4.28842,2.04363 -8.28763,4.56525 -12.51162,6.72349 -1.69087,1.01979 -2.4575,1.92715 -2.22139,3.97348 8.7e-4,2.7547 0.0238,5.50944 -0.001,8.26412 z" />
    <path
       style="fill:#000000"
       id="path29"
       d="m 203.08831,379.24003 c 0.32187,28.84841 0.18321,57.69826 0.55925,86.54587 0.50593,25.62543 3.29326,51.11025 7.63105,76.34866 0.98977,5.26933 0.51674,2.88355 1.39466,7.16212 0,0 3.29972,1.59438 3.29972,1.59438 v 0 c -0.96406,-4.30754 -0.44601,-1.90564 -1.52557,-7.21179 -4.67381,-25.26439 -7.64239,-50.82093 -8.12472,-76.53473 -0.37842,-28.74201 -0.24129,-57.48603 0.0543,-86.22883 z" />
    <path
       style="fill:#000000"
       id="path30"
       d="m 210.11193,381.00708 c 78.42513,-0.88488 156.85201,-0.36192 235.26695,0.99301 88.64901,2.33479 177.29389,6.42315 265.61882,14.48098 12.66458,1.23965 25.32817,2.51914 37.95292,4.12229 1.67078,0.21216 3.33959,0.44012 5.00701,0.67731 0.96216,0.13686 1.97287,0.78984 2.8814,0.44479 0.66664,-0.25318 -1.32723,-0.52201 -1.99085,-0.78301 0.0244,0.94066 0.18763,1.888 0.0731,2.82199 -0.86903,7.08801 -2.58102,14.04712 -3.82796,21.07851 -1.30048,7.33327 -2.55426,14.67475 -3.8427,22.01015 -5.84015,33.24945 -4.61058,26.18977 -10.91671,61.07222 -8.59186,44.05244 -16.04404,88.37547 -26.24392,132.09828 -2.06478,3.84817 -1.12272,9.90278 -4.0815,13.47995 -0.24148,0.29194 -0.67144,0.49487 -1.04673,0.44296 -0.37239,-0.0515 -1.23824,-0.60483 -0.87704,-0.70904 0.67774,-0.19555 1.39015,0.2403 2.08522,0.36045 -4.36675,-9.73619 -7.12196,-10.67535 -16.88807,-15.5518 -3.20316,-1.01734 -6.38635,-2.09981 -9.60947,-3.05202 -15.34863,-4.53446 -24.64691,-6.68878 -40.93247,-11.39519 C 597.424,611.65888 556.4241,598.6067 515.31462,585.98255 466.40743,571.39926 417.97387,555.24208 368.98373,540.93628 c -14.9081,-4.69852 -30.49963,-4.27435 -45.93114,-4.24173 -19.43747,-0.46576 -38.74956,1.87859 -57.82942,5.36987 -14.59009,3.45627 -29.39062,5.68816 -44.31665,6.97647 -7.16492,0.43534 -14.38313,1.35144 -21.46962,-0.16857 -0.38151,-0.11182 -0.76302,-0.22365 -1.14453,-0.33548 0,0 2.96101,2.27666 2.96101,2.27666 v 0 c 0.38108,0.1005 0.76215,0.201 1.14322,0.3015 7.07466,1.36744 14.25277,0.43385 21.38091,-0.0265 14.90642,-1.34036 29.68649,-3.60879 44.26263,-7.05454 19.05754,-3.50931 38.34838,-5.86317 57.76861,-5.33725 15.3897,0.009 30.9359,-0.30691 45.81916,4.27672 48.6544,13.90381 96.73027,29.76352 145.22604,44.19918 41.34547,12.69934 82.56335,25.87893 124.0555,38.09448 15.03587,4.42665 26.85521,7.36238 41.42647,11.79237 3.26694,0.99323 6.48797,2.13165 9.73195,3.19748 5.59983,1.45502 8.5284,6.89777 10.70423,11.85969 1.40627,1.1569 2.74832,2.3966 4.2188,3.47069 0.31379,0.22919 0.706,0.45426 1.09186,0.40838 2.98194,-0.35456 4.17264,-12.84166 4.95375,-14.38764 9.53629,-43.96342 16.7429,-88.40437 25.45781,-132.5322 5.11269,-27.57799 10.0921,-55.18656 15.42998,-82.72233 1.35457,-6.98761 3.16294,-13.89119 4.25978,-20.92387 0.15898,-1.01932 0.0749,-2.06193 0.11235,-3.09289 -1.46399,-0.93639 -2.8034,-2.10449 -4.39196,-2.80915 -0.86619,-0.38423 -1.87619,-0.26804 -2.81612,-0.38825 -1.63563,-0.20918 -3.27223,-0.41127 -4.91036,-0.5999 -12.45629,-1.43433 -24.94234,-2.59631 -37.4295,-3.72277 C 620.79867,387.41789 532.57935,383.65158 444.36257,381.25895 365.28426,379.79542 286.1993,379.274 207.10924,378.82552 Z" />
    <path
       style="fill:#000000"
       id="path31"
       d="m 242.94143,399.81369 c -0.47217,7.45013 -1.95241,15.01374 -0.77583,22.44901 3.77238,7.17269 10.78995,6.14924 16.54753,2.41149 5.2519,-3.95155 7.01029,-9.82938 6.14302,-16.15066 -1.62628,-6.19891 -7.46791,-8.77925 -13.25581,-10.16178 -2.0526,-0.2203 -4.06119,0.17061 -6.04062,0.66156 0,0 3.07526,2.12335 3.07526,2.12335 v 0 c 1.93715,-0.46851 3.89979,-0.82507 5.90116,-0.54207 5.00733,1.2612 4.57799,0.34551 7.02016,6.29817 0.98316,6.18846 -0.74968,11.9475 -5.92456,15.79039 -2.38228,1.50335 -2.44063,1.82746 -5.23653,2.44312 -0.88439,0.19474 -2.02507,-0.28938 -2.69827,0.31634 -0.40128,0.36106 1.26545,1.26188 0.75361,1.43339 -1.37361,0.46027 -2.66832,-2.47123 -2.98574,-3.01117 -1.32389,-7.37679 0.16001,-14.93561 0.75871,-22.32974 z" />
    <path
       style="fill:#000000"
       id="path32"
       d="m 279.74578,405.28587 c 3.47548,7.13572 4.03722,15.33469 6.15914,22.94827 4.54079,9.38843 8.74445,3.77209 12.41669,-1.25281 2.78259,-5.2516 7.21635,-8.05487 12.06692,-11.26539 8.2432,-4.7382 16.26228,-10.36731 25.18472,-13.80227 3.2637,-1.21633 6.71545,0.98552 1.56204,-1.72008 1.1352,2.18668 0.95167,4.90959 1.01557,7.32338 0.0248,0.58338 0.0131,1.16693 0.008,1.75034 0,0 3.3636,1.71334 3.3636,1.71334 v 0 c -0.0138,-0.59316 -0.0377,-1.18603 -0.0426,-1.77942 -0.0769,-2.53006 0.017,-5.19196 -0.85929,-7.59633 -3.46414,-2.08723 -4.44514,-3.03242 -8.10862,-1.74276 -8.84392,3.64465 -16.84617,9.21379 -25.12475,13.92768 -4.97423,3.19471 -9.42996,5.96401 -12.22608,11.32029 -0.82917,1.12487 -2.1707,3.05278 -3.20447,4.05201 -0.52212,0.50468 -1.08303,0.98902 -1.72141,1.33511 -0.45689,0.24769 -1.57238,-0.10195 -1.50338,0.41315 0.0906,0.67596 1.45452,1.75699 1.70935,1.12439 0.32039,-0.79538 -0.83901,-1.49571 -1.25852,-2.24356 -2.22119,-7.63292 -2.82167,-15.76156 -5.9817,-23.07418 z" />
    <path
       style="fill:#000000"
       id="path33"
       d="m 241.06624,456.56954 c 0.83818,8.33992 -1.12515,18.27448 0.50103,26.36662 1.36305,0.75545 2.54057,2.0916 4.08914,2.26633 0.76723,0.0866 1.16364,-1.0245 1.65759,-1.61793 3.36394,-4.04141 5.78855,-9.02722 8.58409,-13.46378 1.80243,-2.23113 3.01711,-5.67913 5.5581,-7.30797 0.3518,-0.22552 1.60975,0.008 1.23975,-0.18599 -3.59914,-1.88926 -2.00949,0.66927 -1.53902,2.49874 1.45119,3.8681 -0.17649,9.2958 1.28833,13.05503 0.68849,1.7669 3.58093,1.29037 5.43998,1.66437 3.2836,-2.98399 5.61712,-9.31331 9.90897,-10.83575 -0.8021,-0.30266 -1.60624,-1.21602 -2.40629,-0.90798 -0.53273,0.20511 0.49504,1.03406 0.65743,1.58132 0.93217,3.14146 -0.36404,5.99065 4.98742,6.36151 1.13753,0.0788 1.87297,-1.30103 2.80945,-1.95155 10.73522,-8.72156 20.44184,-18.73569 31.83107,-26.62578 3.45283,-1.13626 2.3142,-1.37654 5.3059,-0.47461 0.54295,0.16369 -1.43983,-0.91307 -1.65622,-0.38889 -0.0403,0.0977 1.8348,4.28219 2.44304,5.29968 1.52482,0.62763 2.94342,1.64057 4.57446,1.8829 1.36764,0.20319 5.7231,-4.49343 7.32205,-5.20628 0.47732,-0.2128 1.02567,-0.20121 1.53851,-0.30182 -0.66513,-0.29364 -1.3906,-1.28447 -1.99538,-0.88092 -0.51031,0.34051 0.73496,0.99155 1.00147,1.54412 0.99087,2.05444 0.96763,4.39006 1.92607,6.42302 1.30582,0.67822 2.53583,1.52849 3.91748,2.03466 0.82747,0.30314 5.20516,-2.46527 -1.21394,-1.74725 -0.54952,0.0615 0.41382,1.03299 0.51682,1.57625 0.19369,1.02154 0.24621,2.06485 0.36931,3.09728 0.36639,9.52757 0.98468,15.82615 12.08463,17.78035 1.68009,0.12675 3.37468,-0.0958 5.05551,0.0253 0.60798,0.0438 1.8732,0.88569 1.80716,0.27972 -0.0716,-0.65663 -1.45472,-1.22851 -1.85315,-0.7017 -0.41935,0.55449 0.70731,1.1997 0.9994,1.83056 0.34802,0.75163 0.61162,1.53954 0.91742,2.30931 4.41263,10.26687 16.05713,3.77606 22.92075,0.53374 3.99846,-1.5002 8.35263,-5.17972 12.9394,-4.65499 1.12509,0.12871 2.1534,0.70634 3.24913,0.99225 1.16297,-0.31282 2.38433,-0.45862 3.48892,-0.93846 4.26513,-1.85281 11.10244,-6.26933 14.6336,-8.49943 9.70934,-6.13192 19.30757,-12.43063 29.04337,-18.52188 5.42947,-2.67395 13.4229,-9.4586 20.17731,-7.81564 1.19512,0.29071 2.22431,1.05376 3.36421,1.51578 4.46075,-0.15645 8.28098,-2.8889 12.43984,-4.19815 0.78403,-0.24682 2.34626,0.38197 2.42703,-0.43601 0.0782,-0.79176 -1.55683,-0.32909 -2.33524,-0.49363 0.22679,4.55472 -5.46448,10.40397 -5.56198,14.41279 -0.0164,0.67513 0.43189,1.49148 1.06644,1.72257 2.27342,0.82793 4.7645,0.84566 7.14674,1.26849 11.35,-3.00611 22.07932,-9.81598 34.08106,-9.33572 7.16749,0.87484 13.78287,-2.6348 20.68098,-3.84839 0.73548,0.20861 2.15252,-0.13675 2.20643,0.62583 0.0507,0.71721 -1.75496,-0.41967 -2.14936,0.1815 -0.55075,0.8395 0.11933,2.00967 0.0545,3.01161 -0.19586,3.02826 -1.07796,5.9309 -1.37115,8.94662 3.37042,5.44678 6.55119,1.55228 10.2487,0.86261 0.46997,-0.0877 1.90571,0.15006 1.42787,0.13497 -1.09121,-0.0345 -2.1797,-0.12875 -3.26955,-0.19312 -1.2313,4.7044 -5.70211,9.24146 -6.61152,13.93341 -0.10618,0.54783 -0.13544,1.30988 0.31077,1.64498 1.48161,1.11266 3.35336,1.57725 5.03004,2.36588 1.0764,0.0541 8.7656,-2.57251 8.59051,-0.61513 -0.0811,0.90695 -2.04769,0.31142 -2.49959,1.10194 -0.85702,1.49917 -0.55825,3.41614 -1.03244,5.07661 -0.63681,2.22988 -1.52873,4.37888 -2.29309,6.56833 -0.75203,4.14827 -6.19286,10.63769 -4.9544,15.12792 0.73051,2.6486 7.81796,3.4938 8.14575,3.52294 1.40914,0.12525 2.77438,-0.55519 4.16158,-0.83279 3.49649,-0.80495 6.94552,-2.19688 10.57492,-2.33907 1.79771,-0.0704 3.24187,0.61428 5.04437,0.52871 6.62204,-2.69498 13.00383,-5.97264 19.92821,-7.88196 1.73654,-1.13462 2.65088,0.56564 4.09169,0.66925 1.56895,0.11283 4.07699,-2.59239 5.06119,-3.36153 3.58836,-3.70737 8.25783,-5.88582 12.38847,-8.81602 9.91023,-7.315 19.11318,-15.86703 30.36171,-21.10083 4.82665,0.67777 0.11404,-1.30286 -0.33856,-1.31548 -0.34903,-0.01 0.26612,0.65578 0.30155,1.00314 0.0746,0.73106 -0.1233,1.57653 -0.11075,2.32629 -0.0259,0.69928 -0.63834,1.17826 -0.76349,1.89168 0,0 3.33916,1.74173 3.33916,1.74173 v 0 c -0.0146,-0.70178 0.97095,-1.41595 0.79681,-1.94712 -0.51567,-3.68347 1.74901,-7.43198 -6.24216,-5.69299 -11.14045,5.48773 -20.3659,13.97806 -30.44951,21.11238 -4.21311,2.82785 -8.69219,5.27193 -12.3817,8.84318 -0.96755,0.73556 -3.33928,3.22132 -4.89573,2.98327 -2.06413,-0.3157 0.76263,-0.603 -2.15902,-0.65556 -0.67779,-0.0122 -1.34547,0.16703 -2.0182,0.25054 -6.87385,2.00539 -13.23154,5.30899 -19.92279,7.77097 -1.7199,-0.008 -3.30027,-0.57825 -5.0253,-0.46324 -3.6144,0.24095 -7.04102,1.59487 -10.54205,2.38542 -1.38424,0.25135 -2.94182,0.0378 -4.15272,0.75405 -0.5067,0.29971 0.47925,1.6753 -0.10287,1.76311 -0.77901,0.11752 -1.58675,-0.72641 -1.85215,-1.46819 -1.4956,-4.18006 4.05707,-11.27726 4.77847,-15.10532 0.20375,-0.56365 3.96233,-10.1214 3.55487,-11.74378 -1.90091,-7.5689 -7.31421,-4.95803 -12.32919,-4.32844 0.42328,0.49532 0.61846,1.47166 1.26985,1.48596 0.51405,0.0113 -0.54914,-0.96005 -0.47226,-1.46845 0.15573,-1.0299 0.70296,-1.9636 1.13456,-2.91158 1.71849,-3.77454 4.038,-7.23904 5.58049,-11.09671 -1.00972,-1.23887 -1.7948,-2.7014 -3.02917,-3.71663 -0.69172,-0.56892 -5.84244,1.20789 -5.96415,1.67495 -0.21473,0.82399 1.12767,1.30621 1.48277,2.08014 0.17349,0.37812 -0.61125,-0.56452 -0.91687,-0.84677 0.47267,-6.60371 5.16372,-14.75284 -5.00891,-16.56164 -6.86036,1.32513 -13.48171,4.6547 -20.63595,3.78617 -11.99581,-0.18689 -22.63813,6.65093 -34.08895,9.39976 -0.2633,0.76298 -0.0443,1.97978 -0.78989,2.28894 -0.59124,0.24516 -1.26139,-0.79032 -1.28139,-1.43006 -0.11648,-3.72548 5.91615,-10.35775 5.78465,-14.68304 -1.36474,-1.03388 -2.50208,-2.47195 -4.09422,-3.10163 -2.36092,-0.93371 -11.34755,5.6312 -14.75848,4.44606 -0.0402,-0.0166 -3.34866,-1.38846 -3.41057,-1.39966 -7.21604,-1.30502 -14.18087,5.3779 -20.03288,8.18093 -9.70949,6.13158 -19.30171,12.45722 -29.065,18.50255 -3.66648,2.27026 -10.3729,6.50154 -14.79117,8.26391 -1.08933,0.43452 -2.29184,0.49931 -3.43776,0.74896 -1.10334,-0.29935 -2.17195,-0.82335 -3.31351,-0.88515 -4.63127,-0.25069 -8.84701,3.26573 -12.9138,4.83311 -3.58633,1.67915 -5.56728,2.75639 -9.35123,3.9376 -1.37422,0.42898 -2.97947,0.24899 -4.19759,1.01623 -0.46371,0.29207 0.51708,1.56856 -0.0257,1.64387 -1.74151,0.24163 -2.62668,-2.73673 -3.02423,-3.61061 -0.0984,-0.25868 -1.4461,-3.97713 -1.81313,-4.30317 -3.8466,-3.41702 -6.7066,-3.26746 -11.37486,-3.1982 -0.95978,-0.20491 -1.90292,-0.51582 -2.87933,-0.61473 -0.20537,-0.0208 0.61009,0.54398 0.49425,0.37312 -0.58052,-0.8563 -1.44647,-1.52329 -1.90328,-2.4515 -1.69323,-3.44054 -1.20004,-7.58236 -1.59993,-11.25269 -0.037,-0.39384 -0.3262,-4.58113 -0.67414,-4.90892 -1.07864,-1.01617 -2.50796,-1.59825 -3.85844,-2.20838 -0.92661,-0.41863 -5.68349,2.23841 1.08419,2.0649 -0.77315,-1.26823 -0.38204,-0.42949 -0.80337,-2.31926 -1.11676,-5.00895 -1.3586,-5.97331 -6.60224,-8.41685 -2.98247,0.79694 -4.57723,3.08065 -7.1388,4.64612 -0.52544,0.32111 -1.71438,0.16475 -1.67497,0.77928 0.0551,0.85955 1.22746,1.20864 1.84119,1.81295 -1.00388,-1.45677 -1.58566,-4.60613 -2.42691,-5.39264 -3.76057,-3.51588 -5.73737,-4.36363 -10.08959,-2.46241 -11.26811,8.05714 -20.96605,18.06643 -31.88486,26.57582 -0.89006,0.53838 -2.44056,0.60058 -2.67018,1.61514 -0.18194,0.80385 1.15757,1.66644 1.96494,1.50082 0.61014,-0.12517 -0.16198,-1.23535 -0.26287,-1.84998 -0.64297,-3.91705 -0.82434,-4.38257 -5.10935,-6.4525 -4.48501,2.05359 -6.34803,7.71377 -9.92871,10.88455 0.66055,0.82 1.50868,1.51925 1.98165,2.46 0.16344,0.3251 -0.817,-0.15049 -0.98326,-0.47415 -0.33732,-0.65667 -0.3053,-1.44735 -0.38101,-2.18169 -0.37386,-3.6259 -0.26128,-7.30924 -0.9238,-10.91069 -2.73707,-12.74582 -8.63057,-3.50636 -11.67859,1.59169 -2.23809,3.55534 -4.31798,7.24604 -6.67227,10.72533 -0.60731,0.89752 -1.22177,1.79686 -1.93695,2.61102 -0.42654,0.48558 -1.6248,0.63877 -1.46864,1.26593 0.21997,0.88348 1.46012,1.08801 2.19018,1.63201 -0.877,-3.51659 -0.55975,-1.49572 -0.57502,-6.28234 -0.0213,-6.66552 -0.0188,-13.33154 0.0662,-19.99664 z" />
    <path
       style="fill:#000000"
       id="path34"
       d="m 207.28675,548.92837 c 0.057,5.85648 0.0482,11.71349 0.0308,17.57016 -0.0354,6.07555 0.20823,5.80281 5.75221,8.57739 10.9158,0.179 21.72723,1.77375 32.53175,3.21489 30.06657,3.99063 60.21818,7.29132 90.31409,11.04955 23.15543,2.46301 46.1992,5.84759 69.0838,10.1378 20.48796,4.44492 40.90261,9.07926 61.56413,12.68525 31.51889,4.67956 63.13798,8.67953 94.72361,12.88906 20.3358,2.61835 40.52257,6.2231 60.67707,9.95557 6.9445,0.91073 13.60565,3.00158 20.28681,4.98155 1.66417,0.55981 3.15434,0.8357 4.86283,0.39331 2.7812,-0.95057 5.70809,-1.23774 8.54793,-1.91321 2.9328,-0.62065 1.43159,-0.32592 4.50471,-0.87858 0,0 -3.02023,-2.11305 -3.02023,-2.11305 v 0 c -3.09048,0.55856 -1.57939,0.26394 -4.53418,0.8791 -2.85791,0.62885 -5.77214,0.99008 -8.57072,1.89525 -1.65849,0.3107 -3.14235,-0.0151 -4.73781,-0.5373 -6.61231,-1.97377 -13.25426,-3.86771 -20.11576,-4.80242 -20.08569,-3.66486 -40.20187,-7.21089 -60.46394,-9.77458 -31.60417,-4.15142 -63.24084,-8.1253 -94.75277,-12.92805 -20.70745,-3.66816 -41.16643,-8.368 -61.71384,-12.8026 -22.79846,-4.23986 -45.76836,-7.46498 -68.82788,-9.921 -30.18373,-3.75475 -60.42022,-7.09285 -90.55481,-11.2334 -10.88784,-1.48872 -21.77803,-3.02943 -32.7655,-3.45631 0.70172,0.51107 1.40091,1.02564 2.10517,1.53321 0.42406,0.30563 -0.78557,-0.7422 -0.97211,-1.23049 -0.60609,-1.58649 -0.76295,-3.24229 -0.65175,-4.93335 -0.0173,-5.84622 -0.0264,-11.69277 0.0308,-17.53879 z" />
    <path
       style="fill:#000000"
       id="path35"
       d="m 224.18107,633.8638 c -0.36349,3.4958 -0.65467,6.99989 -1.09047,10.48741 -0.69588,5.56889 -5.82683,42.16826 -6.15016,44.53848 -3.80316,27.88019 -7.26637,55.78993 -10.56348,83.73369 -1.7478,17.03308 -3.881,34.0205 -6.16469,50.98832 0,0 2.9007,1.52457 2.9007,1.52457 v 0 c 2.05124,-17.06526 4.00103,-34.14249 5.67363,-51.24989 5.26244,-46.24585 11.52532,-92.34689 18.71059,-138.33293 z" />
    <path
       style="fill:#000000"
       id="path36"
       d="m 230.34936,640.60147 c 40.68923,-0.64009 81.41941,0.7203 121.96134,4.30647 13.69885,1.21175 27.35335,2.88127 41.03003,4.32191 63.32659,7.63474 125.85623,20.31972 188.30712,33.0454 23.82377,5.40981 48.03275,8.95715 71.9143,14.0565 3.30538,0.8124 4.29382,1.00617 7.28355,1.89034 0.62762,0.18561 2.12149,1.20338 1.8698,0.59922 -0.30674,-0.73629 -1.35641,-0.85777 -2.09891,-1.14918 -0.425,-0.1668 0.65925,0.64453 0.90021,1.03234 2.25855,3.31718 6.49693,3.01253 9.95175,3.09758 2.41341,-0.12052 4.79314,0.33961 7.0882,1.05071 0.31836,0.0986 1.22823,0.50089 0.94613,0.3234 -0.81332,-0.51173 -1.70315,-0.89033 -2.55473,-1.3355 0.8486,2.04754 0.74038,1.45498 0.84036,4.74235 0.0976,3.20835 -0.16833,18.37673 -0.18427,19.43509 -0.16767,11.13035 -0.34888,22.2605 -0.52289,33.39076 -0.33466,23.01781 -0.0669,11.88819 -0.76288,33.38978 0,0 2.80236,1.43841 2.80236,1.43841 v 0 c 0.58664,-21.54612 0.34634,-10.40319 0.6941,-33.42935 0.30817,-16.02518 0.31201,-17.75942 0.7198,-33.28849 0.16903,-6.43671 0.5439,-12.87128 0.50836,-19.31012 -0.0178,-3.23303 0.007,-2.7675 -0.61195,-4.98044 -4.17404,-2.52264 -6.97654,-3.80428 -11.94952,-3.6094 -1.20509,-0.0371 -2.6781,-0.0633 -3.89051,-0.17105 -0.47337,-0.0421 -1.68838,-0.56875 -1.41421,-0.18058 2.37361,3.36055 3.07504,1.91513 1.76848,0.97901 -2.04645,-4.53741 -10.22475,-4.71925 -14.19503,-6.04791 -23.73537,-4.8829 -47.75194,-8.39784 -71.41405,-13.67442 -62.26053,-12.49251 -124.59964,-24.90756 -187.68564,-32.54983 -13.70786,-1.46068 -27.39419,-3.13999 -41.12359,-4.38206 -40.93708,-3.7035 -82.0452,-5.17358 -123.1389,-5.14237 z" />
    <path
       style="fill:#000000"
       id="path37"
       d="m 806.71938,148.41521 c 0.10005,11.05382 0.10218,22.1083 0.0871,33.16247 -0.002,6.84859 -0.0555,13.697 -0.0833,20.54549 -0.009,1.18776 -0.009,2.37555 -0.0127,3.56334 0,0 3.33396,1.69873 3.33396,1.69873 v 0 c -0.004,-1.19211 -0.004,-2.38423 -0.0127,-3.57632 -0.0277,-6.87678 -0.0807,-13.75349 -0.0833,-20.63037 -0.015,-11.02457 -0.0133,-22.04947 0.0871,-33.07369 z" />
    <path
       style="fill:#000000"
       id="path38"
       d="m 810.76786,149.08555 c 32.41463,0.66732 64.74569,2.29807 97.02579,5.33205 30.25151,2.86748 60.20371,7.95024 90.2653,12.23054 14.09725,1.70934 28.25495,2.76078 42.37885,4.22805 7.0698,0.80042 14.1825,1.01298 21.2899,1.14531 3.4912,0.0405 1.783,0.0256 5.1246,0.046 0,0 -2.9792,-2.16697 -2.9792,-2.16697 v 0 c -3.3292,-0.0153 -1.6277,-0.003 -5.1044,-0.0368 -7.0827,-0.11443 -14.1676,-0.35923 -21.2144,-1.12784 -14.0582,-1.42067 -28.1542,-2.38495 -42.1813,-4.09736 -29.94534,-4.18631 -59.78958,-9.12479 -89.91458,-11.95124 -32.48745,-3.0455 -65.02847,-4.65657 -97.63342,-5.7775 z" />
    <path
       style="fill:#000000"
       id="path39"
       d="m 815.88238,201.32806 c 29.28029,-1.98367 58.69049,-1.22252 88.00866,-0.63369 34.2698,0.72008 68.52058,1.79403 102.75276,3.54308 10.3193,0.47964 20.6714,0.7713 30.8217,2.8366 4.3081,0.96887 8.767,0.79469 13.1543,0.8349 4.8718,-0.57741 9.8459,1.70887 14.6227,0.32433 2.2043,-2.70791 0.071,-7.19231 -0.5871,-10.26044 -0.8736,-3.00588 -2.1806,-5.86131 -2.9807,-8.88773 -0.025,-1.45505 -0.9274,-2.09096 -1.7036,-3.14307 -1.2993,-1.67188 -0.4758,-3.67721 -0.043,-5.56015 0.516,-2.96263 1.5558,-5.7898 2.4963,-8.63396 0,0 -3.2101,-1.76675 -3.2101,-1.76675 v 0 c -0.9398,2.85324 -1.9767,5.6885 -2.5294,8.65109 -0.4744,1.90851 -1.4284,4.05171 -0.1619,5.80982 0.7275,1.10157 1.7513,1.55269 1.7768,3.03111 0.7912,3.03752 2.095,5.89782 3.0307,8.89241 0.5539,2.62274 2.664,7.52538 0.8382,9.75693 -4.7569,1.2074 -9.6672,-0.92568 -14.4971,-0.36064 -4.3934,-0.0582 -8.845,0.0486 -13.1579,-0.92126 -10.0749,-1.90947 -20.3214,-2.14488 -30.5425,-2.56486 -34.11993,-1.58493 -68.25488,-2.54944 -102.40411,-3.27722 -29.555,-0.63122 -59.18318,-1.43787 -88.71744,0.19118 z" />
    <path
       style="fill:#000000"
       id="path40"
       d="m 826.96023,150.86668 c -3.98392,0.18309 -8.02364,-0.33456 -11.97179,0.28319 -3.16457,0.59089 -4.31344,3.4006 -5.25424,6.14886 -0.68522,3.01881 -1.15758,6.2267 -0.69868,9.30849 0.54234,2.68958 2.10238,4.97717 4.30993,6.56722 4.06629,2.85399 6.46159,3.47042 10.5031,0.92114 2.50036,-1.82573 4.96236,-3.81024 6.88906,-6.24768 1.83644,-2.28595 2.19894,-4.99937 2.42317,-7.82012 0.28714,-3.27759 0.37867,-6.25307 -1.38259,-9.11408 -0.30326,-0.29535 -0.60653,-0.5907 -0.90979,-0.88605 0,0 -3.45538,-1.411 -3.45538,-1.411 v 0 c 0.31681,0.26543 0.63361,0.53085 0.95042,0.79628 1.86382,2.77383 1.79472,5.64232 1.49708,8.90104 -0.2067,2.74532 -0.53813,5.39516 -2.31953,7.6247 -1.91317,2.39249 -4.33353,4.3617 -6.81444,6.14205 -1.56049,0.93747 -3.16608,1.81862 -5.07026,1.48179 -0.36983,-0.0654 -1.35072,-0.6156 -1.06261,-0.37466 0.66595,0.55692 1.48518,0.89938 2.22777,1.34906 -2.25742,-1.42617 -3.84916,-3.67737 -4.43735,-6.29267 -0.55845,-3.0076 -0.0187,-6.18503 0.60974,-9.1482 0.8894,-2.65355 1.96718,-5.29041 5.03035,-5.80795 3.95367,-0.54978 7.98199,-0.0936 11.96361,-0.22175 z" />
    <path
       style="fill:#000000"
       id="path41"
       d="m 824.07568,162.99963 c 2.48598,4.32813 5.2001,8.51601 7.96128,12.67183 0.25064,0.44745 0.50129,0.89489 0.75193,1.34234 0,0 3.3957,1.51969 3.3957,1.51969 v 0 c -0.24944,-0.45852 -0.49889,-0.91704 -0.74834,-1.37556 -2.78099,-4.12084 -5.47532,-8.29596 -7.97685,-12.59338 z" />
    <text
       xml:space="preserve"
       style="fill:#000000"
       x="837.92645"
       y="162.51974"
       id="text41"><tspan
         sodipodi:role="line"
         id="tspan41"
         x="837.92645"
         y="162.51974">ske felt</tspan><tspan
         sodipodi:role="line"
         x="837.92645"
         y="177.51974"
         id="tspan42" /></text>
    <text
       xml:space="preserve"
       style="fill:#000000"
       x="818.93066"
       y="251.16687"
       id="text43"><tspan
         sodipodi:role="line"
         id="tspan43"
         x="818.93066"
         y="251.16687">Trending</tspan><tspan
         sodipodi:role="line"
         x="818.93066"
         y="266.16687"
         id="tspan44"> l</tspan></text>
  </g>
</svg>
